<svg width="21" height="13" viewBox="0 0 21 13" fill="none" xmlns="http://www.w3.org/2000/svg">
<path d="M20.5241 1.061C20.2878 1.80388 19.9693 2.4505 19.5703 3.03763L19.5869 3.01138C19.1949 3.66471 18.7268 4.41954 18.1826 5.27588C17.7159 5.95196 17.4689 6.30196 17.4414 6.32588C17.3207 6.47725 17.2367 6.66275 17.2078 6.86663L17.2069 6.87275C17.2306 7.05825 17.3163 7.22013 17.4414 7.34088L17.7914 7.73113C19.6639 9.65554 20.7171 10.982 20.9511 11.7106C20.9817 11.7911 20.9992 11.8839 20.9992 11.981C20.9992 12.1508 20.9449 12.3074 20.8531 12.436L20.8548 12.4334C20.7008 12.5918 20.4856 12.6898 20.2476 12.6898C20.2213 12.6898 20.1942 12.6889 20.1688 12.6863H20.1723H17.8702C17.8693 12.6863 17.8676 12.6863 17.8658 12.6863C17.5709 12.6863 17.2997 12.583 17.0871 12.4115L17.0897 12.4132C16.7799 12.1586 16.5043 11.883 16.2576 11.5838L16.2497 11.5733C15.8466 11.1177 15.489 10.7341 15.1769 10.4226C14.1374 9.43446 13.3704 8.94038 12.8757 8.94038C12.8573 8.93863 12.8363 8.93775 12.8144 8.93775C12.6701 8.93775 12.5353 8.98238 12.4242 9.0585L12.4268 9.05675C12.3358 9.1705 12.2807 9.3175 12.2807 9.47588C12.2807 9.50738 12.2824 9.53713 12.2868 9.56775V9.56425C12.2632 9.839 12.2492 10.1584 12.2492 10.4813C12.2492 10.5854 12.2509 10.6886 12.2536 10.7919V10.777V11.7911C12.2623 11.8323 12.2676 11.8795 12.2676 11.9276C12.2676 12.1394 12.1713 12.3284 12.0208 12.4535L12.0199 12.4544C11.6813 12.6093 11.2858 12.7003 10.8684 12.7003C10.7792 12.7003 10.6917 12.6959 10.6051 12.688L10.6164 12.6889C9.23919 12.6626 7.96169 12.2593 6.87581 11.5794L6.90644 11.5969C5.58431 10.7936 4.48881 9.748 3.65406 8.5125L3.63044 8.47575C2.83769 7.424 2.09831 6.23575 1.46831 4.98275L1.40706 4.848C1.03869 4.14625 0.657186 3.2835 0.328186 2.39625L0.275686 2.23438C0.141811 1.83538 0.0446855 1.37163 0.00443555 0.891252L0.00268555 0.869377C0.00268555 0.42721 0.262852 0.206127 0.783185 0.206127H3.08444C3.10544 0.204377 3.12994 0.203502 3.15531 0.203502C3.37231 0.203502 3.57269 0.277877 3.73106 0.403002L3.72931 0.401252C3.90431 0.592877 4.03381 0.828251 4.09769 1.09075L4.10031 1.10125C4.52381 2.29738 4.97269 3.30188 5.48894 4.26438L5.43031 4.1445C5.85206 4.99325 6.31844 5.72388 6.85044 6.3985L6.83031 6.37138C7.29698 6.94421 7.66098 7.23063 7.92231 7.23063C7.93019 7.2315 7.93981 7.2315 7.95031 7.2315C8.07981 7.2315 8.19269 7.1615 8.25393 7.0565L8.25481 7.05475C8.31956 6.8885 8.35719 6.69513 8.35719 6.49388C8.35719 6.451 8.35544 6.40813 8.35194 6.36613V6.37138V2.97725C8.33356 2.57738 8.23556 2.20375 8.07194 1.86863L8.07894 1.88525C7.97044 1.65425 7.84006 1.45475 7.68519 1.27713L7.68781 1.28063C7.54431 1.13713 7.44631 0.949001 7.41569 0.739002L7.41481 0.733751C7.41481 0.585001 7.48306 0.451127 7.58981 0.363627L7.59069 0.362752C7.69656 0.265627 7.83831 0.207002 7.99319 0.207002H8.00019H11.6279C11.6472 0.204377 11.6691 0.203502 11.6918 0.203502C11.8624 0.203502 12.0156 0.280502 12.1171 0.401252L12.1179 0.402127C12.2081 0.566627 12.2614 0.763502 12.2614 0.971752C12.2614 1.005 12.2597 1.03738 12.2571 1.06975V1.06538V5.59175C12.2553 5.61275 12.2544 5.63725 12.2544 5.66175C12.2544 5.82275 12.2991 5.97413 12.3761 6.10275L12.3743 6.09925C12.4382 6.19375 12.5449 6.255 12.6657 6.255H12.6666C12.8206 6.2445 12.9606 6.19375 13.0787 6.11325L13.0761 6.115C13.3141 5.95138 13.5188 5.765 13.6964 5.55413L13.6999 5.54975C14.2311 4.9495 14.7211 4.28625 15.1481 3.581L15.1822 3.51975C15.4832 3.021 15.8087 2.40675 16.1036 1.77588L16.1578 1.64725L16.5481 0.866751C16.6837 0.476501 17.0477 0.201752 17.4756 0.201752C17.4922 0.201752 17.5088 0.201752 17.5254 0.202627H17.5228H19.8249C20.4468 0.202627 20.6801 0.488752 20.5249 1.061H20.5241Z" fill="#F0E3CA"/>
</svg>
